<mxfile host="Electron" agent="Mozilla/5.0 (Windows NT 10.0; Win64; x64) AppleWebKit/537.36 (KHTML, like Gecko) draw.io/26.2.2 Chrome/134.0.6998.178 Electron/35.1.2 Safari/537.36" version="26.2.2" pages="2">
  <diagram name="Pagina-1" id="wlCRBC5wy9eOkOmFKai1">
    <mxGraphModel dx="1471" dy="2042" grid="1" gridSize="10" guides="1" tooltips="1" connect="1" arrows="1" fold="1" page="1" pageScale="1" pageWidth="827" pageHeight="1169" math="0" shadow="0">
      <root>
        <mxCell id="0" />
        <mxCell id="1" parent="0" />
        <mxCell id="HDv8PcvIm-5tdW16yh0Z-45" value="" style="group" parent="1" vertex="1" connectable="0">
          <mxGeometry x="780" y="320" width="579" height="510" as="geometry" />
        </mxCell>
        <mxCell id="HDv8PcvIm-5tdW16yh0Z-46" value="Every Worker Node&lt;div&gt;&lt;br&gt;&lt;/div&gt;&lt;div&gt;&lt;br&gt;&lt;/div&gt;&lt;div&gt;&lt;br&gt;&lt;/div&gt;&lt;div&gt;&lt;br&gt;&lt;/div&gt;&lt;div&gt;&lt;br&gt;&lt;/div&gt;&lt;div&gt;&lt;br&gt;&lt;/div&gt;&lt;div&gt;&lt;br&gt;&lt;/div&gt;&lt;div&gt;&lt;br&gt;&lt;/div&gt;&lt;div&gt;&lt;br&gt;&lt;/div&gt;&lt;div&gt;&lt;br&gt;&lt;/div&gt;&lt;div&gt;&lt;br&gt;&lt;/div&gt;&lt;div&gt;&lt;br&gt;&lt;/div&gt;&lt;div&gt;&lt;br&gt;&lt;/div&gt;&lt;div&gt;&lt;br&gt;&lt;/div&gt;&lt;div&gt;&lt;br&gt;&lt;/div&gt;&lt;div&gt;&lt;br&gt;&lt;/div&gt;&lt;div&gt;&lt;br&gt;&lt;/div&gt;" style="whiteSpace=wrap;html=1;shape=mxgraph.basic.pentagon;fillColor=#b1ddf0;strokeColor=#10739e;" parent="HDv8PcvIm-5tdW16yh0Z-45" vertex="1">
          <mxGeometry y="79.33333333333333" width="579" height="430.66666666666663" as="geometry" />
        </mxCell>
        <mxCell id="HDv8PcvIm-5tdW16yh0Z-47" value="" style="aspect=fixed;sketch=0;html=1;dashed=0;whitespace=wrap;verticalLabelPosition=bottom;verticalAlign=top;fillColor=#2875E2;strokeColor=#ffffff;points=[[0.005,0.63,0],[0.1,0.2,0],[0.9,0.2,0],[0.5,0,0],[0.995,0.63,0],[0.72,0.99,0],[0.5,1,0],[0.28,0.99,0]];shape=mxgraph.kubernetes.icon2;kubernetesLabel=1;prIcon=node" parent="HDv8PcvIm-5tdW16yh0Z-45" vertex="1">
          <mxGeometry x="220.20478723404256" width="112.5" height="108" as="geometry" />
        </mxCell>
        <mxCell id="HDv8PcvIm-5tdW16yh0Z-48" value="" style="aspect=fixed;sketch=0;html=1;dashed=0;whitespace=wrap;verticalLabelPosition=bottom;verticalAlign=top;fillColor=#2875E2;strokeColor=#ffffff;points=[[0.005,0.63,0],[0.1,0.2,0],[0.9,0.2,0],[0.5,0,0],[0.995,0.63,0],[0.72,0.99,0],[0.5,1,0],[0.28,0.99,0]];shape=mxgraph.kubernetes.icon2;kubernetesLabel=1;prIcon=k_proxy" parent="HDv8PcvIm-5tdW16yh0Z-45" vertex="1">
          <mxGeometry x="86.23404255319149" y="249.33333333333331" width="92.71" height="89" as="geometry" />
        </mxCell>
        <mxCell id="HDv8PcvIm-5tdW16yh0Z-49" value="NODE LiNUX Kernel" style="image;sketch=0;aspect=fixed;html=1;points=[];align=center;fontSize=12;image=img/lib/mscae/VM_Linux.svg;" parent="HDv8PcvIm-5tdW16yh0Z-45" vertex="1">
          <mxGeometry x="319.99851063829783" y="200" width="82.61" height="76" as="geometry" />
        </mxCell>
        <mxCell id="HDv8PcvIm-5tdW16yh0Z-50" value="" style="endArrow=classic;html=1;rounded=0;entryX=0.054;entryY=0.467;entryDx=0;entryDy=0;exitX=0.9;exitY=0.2;exitDx=0;exitDy=0;exitPerimeter=0;entryPerimeter=0;" parent="HDv8PcvIm-5tdW16yh0Z-45" source="HDv8PcvIm-5tdW16yh0Z-48" target="HDv8PcvIm-5tdW16yh0Z-49" edge="1">
          <mxGeometry width="50" height="50" relative="1" as="geometry">
            <mxPoint x="158.91702127659573" y="294.6666666666667" as="sourcePoint" />
            <mxPoint x="220.5127659574468" y="204" as="targetPoint" />
          </mxGeometry>
        </mxCell>
        <mxCell id="HDv8PcvIm-5tdW16yh0Z-51" value="5" style="edgeLabel;html=1;align=center;verticalAlign=middle;resizable=0;points=[];fontSize=20;" parent="HDv8PcvIm-5tdW16yh0Z-50" vertex="1" connectable="0">
          <mxGeometry x="0.2123" y="2" relative="1" as="geometry">
            <mxPoint as="offset" />
          </mxGeometry>
        </mxCell>
        <mxCell id="HDv8PcvIm-5tdW16yh0Z-52" value="&lt;div&gt;&lt;span style=&quot;font-size: 19px;&quot;&gt;app=backend&lt;/span&gt;&lt;/div&gt;&lt;font style=&quot;font-size: 19px;&quot;&gt;10.244.1.5&lt;/font&gt;" style="aspect=fixed;sketch=0;html=1;dashed=0;whitespace=wrap;verticalLabelPosition=bottom;verticalAlign=top;fillColor=#2875E2;strokeColor=#ffffff;points=[[0.005,0.63,0],[0.1,0.2,0],[0.9,0.2,0],[0.5,0,0],[0.995,0.63,0],[0.72,0.99,0],[0.5,1,0],[0.28,0.99,0]];shape=mxgraph.kubernetes.icon2;kubernetesLabel=1;prIcon=pod" parent="HDv8PcvIm-5tdW16yh0Z-45" vertex="1">
          <mxGeometry x="358.79521276595744" y="328.6666666666667" width="93.75" height="90" as="geometry" />
        </mxCell>
        <mxCell id="HDv8PcvIm-5tdW16yh0Z-53" value="Updates IPTABLE rules" style="shape=callout;whiteSpace=wrap;html=1;perimeter=calloutPerimeter;position2=1;base=35;" parent="HDv8PcvIm-5tdW16yh0Z-45" vertex="1">
          <mxGeometry x="110" y="178.66000000000003" width="130.2" height="70.67" as="geometry" />
        </mxCell>
        <mxCell id="HDv8PcvIm-5tdW16yh0Z-35" value="" style="group" parent="1" vertex="1" connectable="0">
          <mxGeometry x="750" y="-210" width="579" height="510" as="geometry" />
        </mxCell>
        <mxCell id="HDv8PcvIm-5tdW16yh0Z-21" value="Every Worker Node&lt;div&gt;&lt;br&gt;&lt;/div&gt;&lt;div&gt;&lt;br&gt;&lt;/div&gt;&lt;div&gt;&lt;br&gt;&lt;/div&gt;&lt;div&gt;&lt;br&gt;&lt;/div&gt;&lt;div&gt;&lt;br&gt;&lt;/div&gt;&lt;div&gt;&lt;br&gt;&lt;/div&gt;&lt;div&gt;&lt;br&gt;&lt;/div&gt;&lt;div&gt;&lt;br&gt;&lt;/div&gt;&lt;div&gt;&lt;br&gt;&lt;/div&gt;&lt;div&gt;&lt;br&gt;&lt;/div&gt;&lt;div&gt;&lt;br&gt;&lt;/div&gt;&lt;div&gt;&lt;br&gt;&lt;/div&gt;&lt;div&gt;&lt;br&gt;&lt;/div&gt;&lt;div&gt;&lt;br&gt;&lt;/div&gt;&lt;div&gt;&lt;br&gt;&lt;/div&gt;&lt;div&gt;&lt;br&gt;&lt;/div&gt;&lt;div&gt;&lt;br&gt;&lt;/div&gt;" style="whiteSpace=wrap;html=1;shape=mxgraph.basic.pentagon;fillColor=#b1ddf0;strokeColor=#10739e;" parent="HDv8PcvIm-5tdW16yh0Z-35" vertex="1">
          <mxGeometry y="79.33333333333333" width="579" height="430.66666666666663" as="geometry" />
        </mxCell>
        <mxCell id="HDv8PcvIm-5tdW16yh0Z-33" value="" style="aspect=fixed;sketch=0;html=1;dashed=0;whitespace=wrap;verticalLabelPosition=bottom;verticalAlign=top;fillColor=#2875E2;strokeColor=#ffffff;points=[[0.005,0.63,0],[0.1,0.2,0],[0.9,0.2,0],[0.5,0,0],[0.995,0.63,0],[0.72,0.99,0],[0.5,1,0],[0.28,0.99,0]];shape=mxgraph.kubernetes.icon2;kubernetesLabel=1;prIcon=node" parent="HDv8PcvIm-5tdW16yh0Z-35" vertex="1">
          <mxGeometry x="220.20478723404256" width="112.5" height="108" as="geometry" />
        </mxCell>
        <mxCell id="HDv8PcvIm-5tdW16yh0Z-39" value="" style="aspect=fixed;sketch=0;html=1;dashed=0;whitespace=wrap;verticalLabelPosition=bottom;verticalAlign=top;fillColor=#2875E2;strokeColor=#ffffff;points=[[0.005,0.63,0],[0.1,0.2,0],[0.9,0.2,0],[0.5,0,0],[0.995,0.63,0],[0.72,0.99,0],[0.5,1,0],[0.28,0.99,0]];shape=mxgraph.kubernetes.icon2;kubernetesLabel=1;prIcon=k_proxy" parent="HDv8PcvIm-5tdW16yh0Z-35" vertex="1">
          <mxGeometry x="86.23404255319149" y="249.33333333333331" width="92.71" height="89" as="geometry" />
        </mxCell>
        <mxCell id="HDv8PcvIm-5tdW16yh0Z-40" value="NODE LiNUX Kernel" style="image;sketch=0;aspect=fixed;html=1;points=[];align=center;fontSize=12;image=img/lib/mscae/VM_Linux.svg;" parent="HDv8PcvIm-5tdW16yh0Z-35" vertex="1">
          <mxGeometry x="319.99851063829783" y="200" width="82.61" height="76" as="geometry" />
        </mxCell>
        <mxCell id="HDv8PcvIm-5tdW16yh0Z-26" value="" style="endArrow=classic;html=1;rounded=0;entryX=0.054;entryY=0.467;entryDx=0;entryDy=0;exitX=0.9;exitY=0.2;exitDx=0;exitDy=0;exitPerimeter=0;entryPerimeter=0;" parent="HDv8PcvIm-5tdW16yh0Z-35" source="HDv8PcvIm-5tdW16yh0Z-39" target="HDv8PcvIm-5tdW16yh0Z-40" edge="1">
          <mxGeometry width="50" height="50" relative="1" as="geometry">
            <mxPoint x="158.91702127659573" y="294.6666666666667" as="sourcePoint" />
            <mxPoint x="220.5127659574468" y="204" as="targetPoint" />
          </mxGeometry>
        </mxCell>
        <mxCell id="HDv8PcvIm-5tdW16yh0Z-27" value="5" style="edgeLabel;html=1;align=center;verticalAlign=middle;resizable=0;points=[];fontSize=20;" parent="HDv8PcvIm-5tdW16yh0Z-26" vertex="1" connectable="0">
          <mxGeometry x="0.2123" y="2" relative="1" as="geometry">
            <mxPoint as="offset" />
          </mxGeometry>
        </mxCell>
        <mxCell id="HDv8PcvIm-5tdW16yh0Z-41" value="&lt;div&gt;&lt;span style=&quot;font-size: 19px;&quot;&gt;app=backend&lt;/span&gt;&lt;/div&gt;&lt;font style=&quot;font-size: 19px;&quot;&gt;10.244.1.3&lt;/font&gt;" style="aspect=fixed;sketch=0;html=1;dashed=0;whitespace=wrap;verticalLabelPosition=bottom;verticalAlign=top;fillColor=#2875E2;strokeColor=#ffffff;points=[[0.005,0.63,0],[0.1,0.2,0],[0.9,0.2,0],[0.5,0,0],[0.995,0.63,0],[0.72,0.99,0],[0.5,1,0],[0.28,0.99,0]];shape=mxgraph.kubernetes.icon2;kubernetesLabel=1;prIcon=pod" parent="HDv8PcvIm-5tdW16yh0Z-35" vertex="1">
          <mxGeometry x="358.79521276595744" y="328.6666666666667" width="93.75" height="90" as="geometry" />
        </mxCell>
        <mxCell id="HDv8PcvIm-5tdW16yh0Z-43" value="Updates IPTABLE rules" style="shape=callout;whiteSpace=wrap;html=1;perimeter=calloutPerimeter;position2=1;base=35;" parent="HDv8PcvIm-5tdW16yh0Z-35" vertex="1">
          <mxGeometry x="110" y="178.66000000000003" width="130.2" height="70.67" as="geometry" />
        </mxCell>
        <mxCell id="HDv8PcvIm-5tdW16yh0Z-16" value="CONTROL PANE - MASTER NODE&lt;div&gt;&lt;br&gt;&lt;/div&gt;&lt;div&gt;&lt;br&gt;&lt;/div&gt;&lt;div&gt;&lt;br&gt;&lt;/div&gt;&lt;div&gt;&lt;br&gt;&lt;/div&gt;&lt;div&gt;&lt;br&gt;&lt;/div&gt;&lt;div&gt;&lt;br&gt;&lt;/div&gt;&lt;div&gt;&lt;br&gt;&lt;/div&gt;&lt;div&gt;&lt;br&gt;&lt;/div&gt;&lt;div&gt;&lt;br&gt;&lt;/div&gt;&lt;div&gt;&lt;br&gt;&lt;/div&gt;&lt;div&gt;&lt;br&gt;&lt;/div&gt;&lt;div&gt;&lt;br&gt;&lt;/div&gt;&lt;div&gt;&lt;br&gt;&lt;/div&gt;&lt;div&gt;&lt;br&gt;&lt;/div&gt;&lt;div&gt;&lt;br&gt;&lt;/div&gt;&lt;div&gt;&lt;br&gt;&lt;/div&gt;&lt;div&gt;&lt;br&gt;&lt;/div&gt;&lt;div&gt;&lt;br&gt;&lt;/div&gt;&lt;div&gt;&lt;br&gt;&lt;/div&gt;&lt;div&gt;&lt;br&gt;&lt;/div&gt;&lt;div&gt;&lt;br&gt;&lt;/div&gt;" style="whiteSpace=wrap;html=1;shape=mxgraph.basic.pentagon;fillColor=#b0e3e6;strokeColor=#0e8088;" parent="1" vertex="1">
          <mxGeometry x="180" y="-40" width="520" height="480" as="geometry" />
        </mxCell>
        <mxCell id="HDv8PcvIm-5tdW16yh0Z-1" value="API SERVER" style="rounded=1;whiteSpace=wrap;html=1;fillColor=#dae8fc;strokeColor=#6c8ebf;" parent="1" vertex="1">
          <mxGeometry x="210" y="130" width="120" height="60" as="geometry" />
        </mxCell>
        <mxCell id="HDv8PcvIm-5tdW16yh0Z-2" value="" style="endArrow=classic;html=1;rounded=0;entryX=0;entryY=0.5;entryDx=0;entryDy=0;" parent="1" target="HDv8PcvIm-5tdW16yh0Z-1" edge="1">
          <mxGeometry width="50" height="50" relative="1" as="geometry">
            <mxPoint x="80" y="160" as="sourcePoint" />
            <mxPoint x="130" y="130" as="targetPoint" />
          </mxGeometry>
        </mxCell>
        <mxCell id="HDv8PcvIm-5tdW16yh0Z-5" value="1" style="edgeLabel;html=1;align=center;verticalAlign=middle;resizable=0;points=[];fontSize=20;" parent="HDv8PcvIm-5tdW16yh0Z-2" vertex="1" connectable="0">
          <mxGeometry x="0.2123" y="2" relative="1" as="geometry">
            <mxPoint as="offset" />
          </mxGeometry>
        </mxCell>
        <mxCell id="HDv8PcvIm-5tdW16yh0Z-4" value="&lt;div style=&quot;background-color:#ffffff;color:#080808&quot;&gt;&lt;pre style=&quot;font-family:&#39;JetBrains Mono&#39;,monospace;font-size:9,8pt;&quot;&gt;&lt;span style=&quot;color:#0033b3;&quot;&gt;kind&lt;/span&gt;: Service&lt;br&gt;&lt;span style=&quot;color:#0033b3;&quot;&gt;metadata&lt;/span&gt;:&lt;br&gt;  &lt;span style=&quot;color:#0033b3;&quot;&gt;name&lt;/span&gt;: backend-service&lt;br&gt;&lt;span style=&quot;color:#0033b3;&quot;&gt;spec&lt;/span&gt;:&lt;br&gt;  &lt;span style=&quot;color:#0033b3;&quot;&gt;selector&lt;/span&gt;:&lt;br&gt;    &lt;span style=&quot;color:#0033b3;&quot;&gt;app&lt;/span&gt;: backend&lt;/pre&gt;&lt;/div&gt;&lt;font face=&quot;Courier New&quot;&gt;&lt;br&gt;&lt;/font&gt;" style="text;html=1;align=center;verticalAlign=middle;resizable=0;points=[];autosize=1;strokeColor=default;fillColor=default;" parent="1" vertex="1">
          <mxGeometry x="20" y="170" width="180" height="140" as="geometry" />
        </mxCell>
        <mxCell id="HDv8PcvIm-5tdW16yh0Z-6" value="ETCD" style="shape=cylinder3;whiteSpace=wrap;html=1;boundedLbl=1;backgroundOutline=1;size=15;fillColor=#fff2cc;strokeColor=#d6b656;" parent="1" vertex="1">
          <mxGeometry x="540" y="170" width="60" height="80" as="geometry" />
        </mxCell>
        <mxCell id="HDv8PcvIm-5tdW16yh0Z-7" value="" style="endArrow=classic;html=1;rounded=0;entryX=0.5;entryY=0;entryDx=0;entryDy=0;exitX=0.5;exitY=1;exitDx=0;exitDy=0;" parent="1" source="HDv8PcvIm-5tdW16yh0Z-1" target="HDv8PcvIm-5tdW16yh0Z-11" edge="1">
          <mxGeometry width="50" height="50" relative="1" as="geometry">
            <mxPoint x="90" y="170" as="sourcePoint" />
            <mxPoint x="220" y="170" as="targetPoint" />
          </mxGeometry>
        </mxCell>
        <mxCell id="HDv8PcvIm-5tdW16yh0Z-8" value="2" style="edgeLabel;html=1;align=center;verticalAlign=middle;resizable=0;points=[];fontSize=20;" parent="HDv8PcvIm-5tdW16yh0Z-7" vertex="1" connectable="0">
          <mxGeometry x="0.2123" y="2" relative="1" as="geometry">
            <mxPoint as="offset" />
          </mxGeometry>
        </mxCell>
        <mxCell id="HDv8PcvIm-5tdW16yh0Z-11" value="CONTROLLER MANAGER" style="rounded=1;whiteSpace=wrap;html=1;fillColor=#dae8fc;strokeColor=#6c8ebf;" parent="1" vertex="1">
          <mxGeometry x="294" y="220" width="120" height="60" as="geometry" />
        </mxCell>
        <mxCell id="HDv8PcvIm-5tdW16yh0Z-12" value="Endpoint controller" style="rounded=1;whiteSpace=wrap;html=1;fillColor=#dae8fc;strokeColor=#6c8ebf;" parent="1" vertex="1">
          <mxGeometry x="340" y="320" width="120" height="60" as="geometry" />
        </mxCell>
        <mxCell id="HDv8PcvIm-5tdW16yh0Z-13" value="" style="endArrow=classic;html=1;rounded=0;entryX=0.5;entryY=0;entryDx=0;entryDy=0;exitX=0.59;exitY=1.047;exitDx=0;exitDy=0;exitPerimeter=0;" parent="1" source="HDv8PcvIm-5tdW16yh0Z-11" target="HDv8PcvIm-5tdW16yh0Z-12" edge="1">
          <mxGeometry width="50" height="50" relative="1" as="geometry">
            <mxPoint x="460" y="270" as="sourcePoint" />
            <mxPoint x="570" y="320" as="targetPoint" />
          </mxGeometry>
        </mxCell>
        <mxCell id="HDv8PcvIm-5tdW16yh0Z-14" value="2" style="edgeLabel;html=1;align=center;verticalAlign=middle;resizable=0;points=[];fontSize=20;" parent="HDv8PcvIm-5tdW16yh0Z-13" vertex="1" connectable="0">
          <mxGeometry x="0.2123" y="2" relative="1" as="geometry">
            <mxPoint as="offset" />
          </mxGeometry>
        </mxCell>
        <mxCell id="HDv8PcvIm-5tdW16yh0Z-17" value="" style="endArrow=classic;html=1;rounded=0;entryX=0;entryY=0.5;entryDx=0;entryDy=0;exitX=1;exitY=0;exitDx=0;exitDy=0;entryPerimeter=0;" parent="1" source="HDv8PcvIm-5tdW16yh0Z-12" target="HDv8PcvIm-5tdW16yh0Z-6" edge="1">
          <mxGeometry width="50" height="50" relative="1" as="geometry">
            <mxPoint x="375" y="293" as="sourcePoint" />
            <mxPoint x="410" y="330" as="targetPoint" />
          </mxGeometry>
        </mxCell>
        <mxCell id="HDv8PcvIm-5tdW16yh0Z-18" value="3" style="edgeLabel;html=1;align=center;verticalAlign=middle;resizable=0;points=[];fontSize=20;" parent="HDv8PcvIm-5tdW16yh0Z-17" vertex="1" connectable="0">
          <mxGeometry x="0.2123" y="2" relative="1" as="geometry">
            <mxPoint as="offset" />
          </mxGeometry>
        </mxCell>
        <mxCell id="HDv8PcvIm-5tdW16yh0Z-19" value="Evaluate Service selector, identifies the PODS&amp;nbsp; and creates&lt;div&gt;Enpoints in &lt;b&gt;ETCD&lt;/b&gt;&lt;/div&gt;" style="shape=callout;whiteSpace=wrap;html=1;perimeter=calloutPerimeter;position2=0.83;" parent="1" vertex="1">
          <mxGeometry x="400" y="110" width="130" height="130" as="geometry" />
        </mxCell>
        <mxCell id="HDv8PcvIm-5tdW16yh0Z-20" value="NAME                        &#xa;endpoints/backend-service (10.96.146.178:3000)&#xa;&#xa;ENDPOINTS (POD IP)          &#xa;10.244.1.3:3000,&#xa;10.244.1.5:3000   " style="text;whiteSpace=wrap;fontFamily=Courier New;fillColor=#000000;fontColor=#FFFFFF;" parent="1" vertex="1">
          <mxGeometry x="355" y="470" width="210" height="120" as="geometry" />
        </mxCell>
        <mxCell id="HDv8PcvIm-5tdW16yh0Z-23" value="" style="shape=flexArrow;endArrow=classic;startArrow=classic;html=1;rounded=0;entryX=0.005;entryY=0.63;entryDx=0;entryDy=0;exitX=1;exitY=0.5;exitDx=0;exitDy=0;exitPerimeter=0;fillColor=#FFFF66;entryPerimeter=0;" parent="1" source="HDv8PcvIm-5tdW16yh0Z-6" target="HDv8PcvIm-5tdW16yh0Z-39" edge="1">
          <mxGeometry width="100" height="100" relative="1" as="geometry">
            <mxPoint x="690" y="210" as="sourcePoint" />
            <mxPoint x="780" y="150" as="targetPoint" />
          </mxGeometry>
        </mxCell>
        <mxCell id="HDv8PcvIm-5tdW16yh0Z-24" value="4 - WATCHES on&amp;nbsp;&lt;div&gt;ENDPOINT CHANGE&lt;/div&gt;" style="edgeLabel;html=1;align=center;verticalAlign=middle;resizable=0;points=[];" parent="HDv8PcvIm-5tdW16yh0Z-23" vertex="1" connectable="0">
          <mxGeometry x="-0.0152" relative="1" as="geometry">
            <mxPoint as="offset" />
          </mxGeometry>
        </mxCell>
        <mxCell id="HDv8PcvIm-5tdW16yh0Z-29" value="" style="shape=flexArrow;endArrow=classic;startArrow=classic;html=1;rounded=0;entryX=0.063;entryY=0.073;entryDx=0;entryDy=0;exitX=1;exitY=1;exitDx=0;exitDy=-15;exitPerimeter=0;fillColor=#FFFF66;entryPerimeter=0;" parent="1" source="HDv8PcvIm-5tdW16yh0Z-6" target="HDv8PcvIm-5tdW16yh0Z-48" edge="1">
          <mxGeometry width="100" height="100" relative="1" as="geometry">
            <mxPoint x="610" y="220" as="sourcePoint" />
            <mxPoint x="865.23" y="360.15999999999985" as="targetPoint" />
          </mxGeometry>
        </mxCell>
        <mxCell id="HDv8PcvIm-5tdW16yh0Z-30" value="4 - WATCHES on&amp;nbsp;&lt;div&gt;ENDPOINT CHANGE&lt;/div&gt;" style="edgeLabel;html=1;align=center;verticalAlign=middle;resizable=0;points=[];" parent="HDv8PcvIm-5tdW16yh0Z-29" vertex="1" connectable="0">
          <mxGeometry x="-0.0152" relative="1" as="geometry">
            <mxPoint as="offset" />
          </mxGeometry>
        </mxCell>
        <mxCell id="HDv8PcvIm-5tdW16yh0Z-31" value="" style="endArrow=none;dashed=1;html=1;dashPattern=1 3;strokeWidth=2;rounded=0;entryX=0.5;entryY=1;entryDx=0;entryDy=0;entryPerimeter=0;exitX=0.5;exitY=0;exitDx=0;exitDy=0;" parent="1" source="HDv8PcvIm-5tdW16yh0Z-20" target="HDv8PcvIm-5tdW16yh0Z-6" edge="1">
          <mxGeometry width="50" height="50" relative="1" as="geometry">
            <mxPoint x="770" y="230" as="sourcePoint" />
            <mxPoint x="820" y="180" as="targetPoint" />
          </mxGeometry>
        </mxCell>
        <mxCell id="HDv8PcvIm-5tdW16yh0Z-32" value="" style="aspect=fixed;sketch=0;html=1;dashed=0;whitespace=wrap;verticalLabelPosition=bottom;verticalAlign=top;fillColor=#2875E2;strokeColor=#ffffff;points=[[0.005,0.63,0],[0.1,0.2,0],[0.9,0.2,0],[0.5,0,0],[0.995,0.63,0],[0.72,0.99,0],[0.5,1,0],[0.28,0.99,0]];shape=mxgraph.kubernetes.icon2;kubernetesLabel=1;prIcon=node" parent="1" vertex="1">
          <mxGeometry x="387.5" y="-90" width="112.5" height="108" as="geometry" />
        </mxCell>
      </root>
    </mxGraphModel>
  </diagram>
  <diagram id="m2rJpUFRkToWJrqVT9XN" name="Pagina-2">
    <mxGraphModel dx="910" dy="459" grid="1" gridSize="10" guides="1" tooltips="1" connect="1" arrows="1" fold="1" page="1" pageScale="1" pageWidth="827" pageHeight="1169" math="0" shadow="0">
      <root>
        <mxCell id="0" />
        <mxCell id="1" parent="0" />
      </root>
    </mxGraphModel>
  </diagram>
</mxfile>
